<svg width="25" height="25" viewBox="0 0 25 25" fill="none" xmlns="http://www.w3.org/2000/svg">
<path d="M11.3797 17.2795C11.2485 17.2798 11.1184 17.2542 10.9971 17.204C10.8758 17.1539 10.7655 17.0804 10.6727 16.9875L6.43073 12.7445C6.33515 12.6524 6.25889 12.5421 6.2064 12.4201C6.15391 12.2981 6.12623 12.1669 6.12498 12.0342C6.12374 11.9014 6.14895 11.7697 6.19914 11.6468C6.24933 11.5238 6.32351 11.4121 6.41733 11.3182C6.51116 11.2242 6.62276 11.1499 6.74562 11.0995C6.86847 11.0491 7.00013 11.0237 7.13291 11.0248C7.26569 11.0259 7.39693 11.0534 7.51897 11.1057C7.64101 11.158 7.75141 11.2341 7.84373 11.3295L11.3787 14.8645L17.7437 8.50155C17.9312 8.31391 18.1856 8.20844 18.4509 8.20834C18.7161 8.20825 18.9706 8.31354 19.1582 8.50105C19.3459 8.68855 19.4513 8.94292 19.4514 9.20819C19.4515 9.47346 19.3462 9.72791 19.1587 9.91555L12.0867 16.9875C11.9939 17.0804 11.8837 17.1539 11.7623 17.204C11.641 17.2542 11.511 17.2798 11.3797 17.2795Z" fill="#2FAB73"/>
</svg>
